<svg width="32" height="32" viewBox="0 0 32 32" fill="none" xmlns="http://www.w3.org/2000/svg">
<circle cx="16" cy="16" r="15.6" fill="white" stroke="#DEDFDE" stroke-width="0.8"/>
<path d="M11.7277 23.8672H20.1117C22.3197 23.8672 23.1997 22.5152 23.3037 20.8672L23.7197 14.2592C23.8317 12.5312 22.4557 11.0672 20.7197 11.0672C20.2317 11.0672 19.7837 10.7872 19.5597 10.3552L18.9837 9.19519C18.6157 8.46719 17.6557 7.86719 16.8397 7.86719H15.0077C14.1837 7.86719 13.2237 8.46719 12.8557 9.19519L12.2797 10.3552C12.0557 10.7872 11.6077 11.0672 11.1197 11.0672C9.38367 11.0672 8.00767 12.5312 8.11967 14.2592L8.53567 20.8672C8.63167 22.5152 9.51967 23.8672 11.7277 23.8672Z" stroke="#61615F" stroke-width="1.2" stroke-linecap="round" stroke-linejoin="round"/>
<path d="M14.7188 12.6641H17.1188" stroke="#61615F" stroke-width="1.2" stroke-linecap="round" stroke-linejoin="round"/>
<path d="M15.9203 20.6648C17.3523 20.6648 18.5203 19.4968 18.5203 18.0648C18.5203 16.6328 17.3523 15.4648 15.9203 15.4648C14.4883 15.4648 13.3203 16.6328 13.3203 18.0648C13.3203 19.4968 14.4883 20.6648 15.9203 20.6648Z" stroke="#61615F" stroke-width="1.2" stroke-linecap="round" stroke-linejoin="round"/>
</svg>
