<svg fill="none" height="22" viewBox="0 0 22 22" width="22" xmlns="http://www.w3.org/2000/svg">
    <path d="M15.9198 21C13.1198 21 10.8398 18.73 10.8398 15.92C10.8398 13.12 13.1098 10.84 15.9198 10.84C18.7198 10.84 20.9998 13.11 20.9998 15.92C20.9998 18.73 18.7298 21 15.9198 21Z"
        fill="#00ACB6"
        opacity="0.4" />
    <path d="M4.02 1H7.94C10.01 1 11.01 1.99999 10.96 4.01999V7.94C11.01 10.01 10.01 11.01 7.94 10.96H4.02C2 11 1 9.99999 1 7.92999V4.01001C1 2.00001 2 1 4.02 1Z"
        fill="#00ACB6"
        opacity="0.4" />
    <path
        d="M8.00969 7.26004C7.69969 7.26004 7.40969 7.14003 7.13969 6.94003C7.38969 6.54003 7.5697 6.09004 7.6597 5.60004H7.99969C8.40969 5.60004 8.74969 5.26004 8.74969 4.85004C8.74969 4.44004 8.40969 4.10004 7.99969 4.10004H7.00969C6.99969 4.10004 6.9897 4.10004 6.9897 4.10004H6.9697H6.7097C6.6697 3.72004 6.3597 3.42004 5.9697 3.42004C5.5797 3.42004 5.26969 3.72004 5.22969 4.10004H3.9397C3.5297 4.10004 3.1897 4.44004 3.1897 4.85004C3.1897 5.26004 3.5297 5.60004 3.9397 5.60004H6.1097C5.8097 6.56004 4.94969 7.26004 3.92969 7.26004C3.51969 7.26004 3.17969 7.60004 3.17969 8.01004C3.17969 8.42004 3.51969 8.76004 3.92969 8.76004C4.73969 8.76004 5.4897 8.49004 6.1097 8.04004C6.6597 8.50004 7.31969 8.76004 7.99969 8.76004C8.40969 8.76004 8.74969 8.42004 8.74969 8.01004C8.74969 7.60004 8.41969 7.26004 8.00969 7.26004Z"
        fill="#00ACB6" />
    <path
        d="M8 21.75C3.73 21.75 0.25 18.27 0.25 14C0.25 13.59 0.59 13.25 1 13.25C1.41 13.25 1.75 13.59 1.75 14C1.75 16.96 3.81 19.44 6.58 20.09L6.31 19.64C6.1 19.28 6.21001 18.82 6.57001 18.61C6.92001 18.4 7.39001 18.51 7.60001 18.87L8.64999 20.62C8.78999 20.85 8.79 21.14 8.66 21.37C8.52 21.6 8.27 21.75 8 21.75Z"
        fill="#00ACB6" />
    <path
        d="M21.0004 8.75C20.5904 8.75 20.2504 8.41 20.2504 8C20.2504 5.04 18.1904 2.56 15.4204 1.91L15.6904 2.35999C15.9004 2.71999 15.7904 3.18001 15.4304 3.39001C15.0804 3.60001 14.6104 3.49 14.4004 3.13L13.3504 1.38C13.2104 1.15 13.2104 0.860005 13.3404 0.630005C13.4704 0.390005 13.7204 0.25 13.9904 0.25C18.2604 0.25 21.7404 3.73 21.7404 8C21.7504 8.41 21.4104 8.75 21.0004 8.75Z"
        fill="#00ACB6" />
    <path
        d="M18.7296 17.33L16.5896 13.06C16.4596 12.81 16.1996 12.64 15.9196 12.64C15.6396 12.64 15.3796 12.8 15.2496 13.05L13.1096 17.32C12.9196 17.69 13.0696 18.14 13.4496 18.33C13.5596 18.38 13.6696 18.41 13.7796 18.41C14.0496 18.41 14.3196 18.26 14.4496 18L14.6196 17.66H17.2096L17.3796 18C17.5696 18.37 18.0196 18.52 18.3896 18.34C18.7696 18.15 18.9196 17.7 18.7296 17.33ZM15.3796 16.16L15.9295 15.07L16.4796 16.16H15.3796Z"
        fill="#00ACB6" />
</svg>
